<svg id="Layer_1" enable-background="new 0 0 508.202 508.202" height="512" viewBox="0 0 508.202 508.202" width="512" xmlns="http://www.w3.org/2000/svg"><g><g><path d="m502.019 260.284c0 24.093-3.437 47.383-9.847 69.407-30.018 103.14-129.485 172.913-242.314 172.913-136.921 0-232.682-108.748-232.682-245.67 0-21.077-8.364-38.189-3.414-57.727 27.207-107.387 124.494-186.842 240.339-186.842 136.921 0 247.918 110.997 247.918 247.919z" fill="#82cd64"/></g><path d="m484.505 351.967c0-.013-.002-.025-.003-.037 2.888-7.254 5.453-14.672 7.656-22.244-.001 0 0 0-.001 0-5.302 5.183-13.948 4.488-18.447-1.377-9.763-12.73-33.294-42.919-91.413-117.815-3.173-4.089-1.38-10.094 3.52-11.762 3.94-1.341 6.047-5.623 4.706-9.563l-2.681-7.876c-1.341-3.94-5.623-6.047-9.563-4.706-10.552 3.592-22.221.091-29.054-8.715l-28.111-36.23c-4.711-6.072-7.408-13.528-7.336-21.213.278-29.752-22.276-55.279-51.607-58.827-9.478-1.146-17.385-7.797-20.461-16.835l-3.37-9.9c-2.39-7.023-9.415-11.342-16.771-10.379-3.66.479-7.295 1.038-10.902 1.676l14.655 43.056c-34.437 20.051-38.934 67.719-10.116 94.116l-.294 78.857-15.738 5.71v-95.474h-41.419c-7.729 0-13.994 6.265-13.994 13.994v39.91c0 39.445-56.798 45.658-65.209 7.12-.184-.845-.364-1.691-.54-2.538-7.097-34.233-55.663-35.596-64.25-1.707-4.767 18.814-7.383 38.486-7.57 58.739-1.255 136.014 108.307 248.303 244.315 250.229 88.114 1.248 165.854-43.486 210.79-111.738 4.228-6.435 8.122-13.019 11.308-18.944l-.01-.013c.053-.1.108-.198.161-.298.007-.006.015-.012.022-.018 4.069-7.588 8.315-16.627 11.727-25.198zm-217.778-184.356c4.695-.963 9.132-2.445 13.511-4.524l28.769 37.078-29.676 10.101c-6.259 2.131-12.754-2.538-12.729-9.15zm-67.552 95.001 15.645-5.679-.042 11.208-.214 57.414h-15.389zm80.29 121.017c-.326-.386-.662-.764-1.006-1.133-7.8-8.363-12.463-19.164-12.421-30.6l.42-112.539 57.716-19.645 77.584 99.991c5.209 6.714 8.35 14.796 9.054 23.264.019.228.04.456.064.683 2.365 22.406-11.674 43.211-33.616 48.328-21.941 5.118-44.56 7.225-67.269 6.232-11.725-.512-22.949-5.617-30.526-14.581z" fill="#20b7a1"/><g><g><g><path d="m20.392 274.948h269.812v23.247h-269.812z" fill="#ffc305" transform="matrix(0 1 -1 0 441.87 131.273)"/><path d="m38.294 277.286h269.812v18.57h-269.812z" fill="#f8e000" transform="matrix(0 1 -1 0 459.772 113.371)"/><path d="m1.872 277.904h269.812v17.335h-269.812z" fill="#ff8500" transform="matrix(0 1 -1 0 423.35 149.793)"/><path d="m128.111 421.477 27.187 54.799 27.187-54.799z" fill="#fff"/><path d="m166.922 452.848h-23.247l11.623 23.428z" fill="#ffc305"/><path d="m150.379 452.848h-6.704l11.623 23.428z" fill="#ff8500"/></g></g><circle cx="239.92" cy="413.054" fill="#ff8500" r="31.275"/><path d="m249.859 502.604c-11.348-.042-20.512-9.276-20.47-20.623l1.212-324.554 20.547.077z" fill="#6ee1ff"/><path d="m229.456 464.021 1.145-306.594-31.025-.116-1.029 275.569c-.064 17.135 13.774 31.077 30.909 31.141z" fill="#2d56a1"/><path d="m198.877 383.631.068-18.108h-.147l-.251 67.357c-.064 17.135 13.775 31.077 30.91 31.141l.184-49.253c-17.068-.143-30.828-14.052-30.764-31.137z" fill="#1a396b"/><path d="m464.235 429.636c8.966-6.956 10.594-19.864 3.638-28.829l-198.958-256.422-16.233 12.596z" fill="#6ee1ff"/><path d="m456.864 386.618-187.949-242.233 24.512-19.019 168.93 217.72c10.504 13.539 8.045 33.028-5.493 43.532z" fill="#2d56a1"/><path d="m455.943 339.527c4.166 12.239.315 25.271-8.742 33.386-3.044 2.727-8.434-.371-12.547 1.029-16.352 5.566-25.383.252-30.949-16.1-2.783-8.176-8.965-14.865-5.431-22.047s9.808-13.015 17.984-15.798c16.352-5.566 34.119 3.178 39.685 19.53z" fill="#ff8500"/><path d="m414.507 336.635c-.018-.052-.035-.103-.052-.155-2.407-7.191-12.21-8.215-15.758-1.513-4.095 7.735-4.953 17.16-1.481 26.051 5.775 14.787 22.108 22.978 37.408 18.745 4.854-1.343 9.099-3.734 12.576-6.851 5.724-5.13 2.397-14.604-5.271-15.148-12.115-.86-23.216-8.773-27.422-21.129z" fill="#fa690f"/><g><path d="m206.341.785h23.393v111.902h-23.393z" fill="#2d56a1" transform="matrix(.947 -.322 .322 .947 -6.653 73.281)"/></g><path d="m227.722 48.887c-3.807.632-7.613 1.565-11.386 2.85-3.773 1.284-7.358 2.866-10.76 4.688l19.417 57.048 22.145-7.538z" fill="#1a396b"/><circle cx="239.314" cy="119.245" fill="#ff5551" r="58.798"/><path d="m335.967 230.804 31.065-10.574-15.167-19.548-31.065 10.574z" fill="#1a396b"/><path d="m266.378 145.849c6.115-8.517 7.862-19.963 3.373-30.544-5.916-13.944-21.342-21.712-36.061-18.135-4.283 1.041-8.115 2.887-11.392 5.328-6.45 4.804-15.515-.179-15.218-8.216.007-.182.014-.364.023-.546.455-9.794-12.447-13.967-17.642-5.651-9.288 14.867-11.88 33.739-5.287 51.577 10.485 28.371 41.347 44.3 70.526 36.334 8.08-2.206 15.266-5.956 21.353-10.829 4.502-3.604 1.596-10.822-4.139-10.223-.109.011-.217.022-.326.033-4.97.491-8.123-5.07-5.21-9.128z" fill="#e20a62"/><g><path d="m171.242 216.255h207.832v23.393h-207.832z" fill="#2d56a1" transform="matrix(.947 -.322 .322 .947 -58.776 100.822)"/></g><path d="m199.127 277.38 31.065-10.574.093-24.742-31.066 10.574z" fill="#1a396b"/><g><path d="m236.842 228.638-63.827 21.725 7.538 22.145 56.289-19.159z" fill="#1a396b"/></g><path d="m149.487 334.794h100.827v46.094h-100.827z" fill="#2d56a1"/><path d="m123.995 334.794h31.303v46.094h-31.303z" fill="#1a396b"/><circle cx="239.314" cy="119.245" fill="#ff8500" r="31.275"/></g></g></svg>